<mxfile host="app.diagrams.net" modified="2024-06-13T14:40:35.507Z" agent="Mozilla/5.0 (X11; Linux x86_64) AppleWebKit/537.36 (KHTML, like Gecko) Chrome/115.0.0.0 Safari/537.36" version="24.4.14" etag="y9MXH5eqJI5aWluCd4VC" type="github">
  <diagram name="第 1 页" id="tu-THbtjKOJsIaEk1Jml">
    <mxGraphModel>
      <root>
        <mxCell id="0" />
        <mxCell id="1" parent="0" />
      </root>
    </mxGraphModel>
  </diagram>
</mxfile>
